<svg xmlns="http://www.w3.org/2000/svg" viewBox="0 0 512 512" width="100%" height="100%">
  <defs>
    <linearGradient id="hwgBg" x1="0%" y1="0%" x2="100%" y2="100%">
      <stop offset="0%" stop-color="#0B0F19" />
      <stop offset="100%" stop-color="#030712" />
    </linearGradient>

    <linearGradient id="emeraldStem" x1="0%" y1="100%" x2="0%" y2="0%">
      <stop offset="0%" stop-color="#059669" />
      <stop offset="60%" stop-color="#10B981" />
      <stop offset="100%" stop-color="#34D399" />
    </linearGradient>

    <linearGradient id="amberArrow" x1="0%" y1="100%" x2="0%" y2="0%">
      <stop offset="0%" stop-color="#D97706" />
      <stop offset="50%" stop-color="#F59E0B" />
      <stop offset="100%" stop-color="#FBBF24" />
    </linearGradient>

    <linearGradient id="borderGlow" x1="0%" y1="0%" x2="100%" y2="100%">
      <stop offset="0%" stop-color="rgba(16, 185, 129, 0.4)" />
      <stop offset="50%" stop-color="rgba(255, 255, 255, 0.05)" />
      <stop offset="100%" stop-color="rgba(245, 158, 11, 0.3)" />
    </linearGradient>

    <filter id="masterGlow" x="-20%" y="-20%" width="140%" height="140%">
      <feDropShadow dx="0" dy="8" stdDeviation="16" flood-color="#10B981" flood-opacity="0.2" />
    </filter>
  </defs>

  <rect width="512" height="512" rx="120" fill="url(#hwgBg)" />
  <rect x="2" y="2" width="508" height="508" rx="118" fill="none" stroke="url(#borderGlow)" stroke-width="3" />

  <g filter="url(#masterGlow)">
    <path 
      d="M 130 360 
         L 130 200 
         C 130 140 170 105 220 105 
         C 220 155 190 190 190 230 
         L 190 360 
         C 190 376.5 176.5 390 160 390 
         C 143.5 390 130 376.5 130 360 Z" 
      fill="url(#emeraldStem)" 
    />

    <rect 
      x="170" 
      y="246" 
      width="172" 
      height="48" 
      rx="24" 
      fill="#10B981" 
      opacity="0.9" 
    />

    <rect 
      x="322" 
      y="210" 
      width="60" 
      height="150" 
      rx="30" 
      fill="url(#amberArrow)" 
    />

    <path 
      d="M 352 80 
         L 420 170 
         C 426 178 420 190 410 190 
         L 375 190 
         L 375 210 
         L 329 210 
         L 329 190 
         L 294 190 
         C 284 190 278 178 284 170 
         Z" 
      fill="url(#amberArrow)" 
    />

    <circle cx="430" cy="100" r="14" fill="#FBBF24" />
  </g>
</svg>
